<svg xmlns="http://www.w3.org/2000/svg" xmlns:cc="http://web.resource.org/cc/" xmlns:svg="http://www.w3.org/2000/svg" id="svg9840" width="639.13" height="441.59" version="1.0"><metadata id="metadata9845"/><g id="layer1" transform="translate(-38.253807,-179.34541)"><g id="g9835" transform="matrix(5.5071171,0,0,5.5071171,-1052.0016,-2439.6705)"><path style="font-size:12px;fill:#fff;fill-opacity:.99166697;fill-rule:evenodd;stroke:#000;stroke-width:2.37995911;stroke-linejoin:round;stroke-dasharray:none" id="path575" d="M 219.80889,506.70145 C 219.98225,505.92963 218.62562,517.11127 218.88563,514.68859 C 220.6047,505.19077 219.8831,494.8973 223.70929,485.86207 C 224.66272,483.86817 225.87619,482.60324 227.43635,482.68899 C 249.62535,483.37506 272.50778,460.39171 289.14952,511.50394 C 340.46162,535.51642 292.71741,554.81215 252.09563,553.09699 C 211.95581,551.4165 177.68445,522.48108 219.80889,506.70145 z"/><path style="font-size:12px;fill:#fff;fill-rule:evenodd;stroke:#000;stroke-width:1.18997955" id="path576" d="M 218.76878,513.56216 C 244.42481,529.68483 286.7226,519.73679 288.45612,511.84699 C 290.88306,514.59127 288.45612,522.13805 288.45612,522.13805 C 277.36163,536.54554 223.62261,533.45821 217.72866,523.16715 C 217.03526,520.42286 218.42207,514.59127 218.76878,513.56216 z"/><path style="font-size:12px;fill:#fff;fill-opacity:.31666697;fill-rule:evenodd;stroke:#000;stroke-width:.44703722pt" id="path590" d="M 223.82207,516.53199 C 227.98252,518.5902 239.91766,521.69162 244.77152,522.03465 C 248.23855,524.43591 246.50503,528.65571 245.11823,531.4 C 235.75723,531.4 225.00943,528.99876 222.23581,525.91143 C 220.50229,522.82412 222.08855,519.61929 223.82207,516.53199 z"/></g></g></svg>